<svg width="80" height="81" viewBox="0 0 80 81" fill="none" xmlns="http://www.w3.org/2000/svg">
<path d="M28.6462 51.9875C21.8048 58.4804 5.48615 54.6665 8.00707 43.9977C4.70707 41.3477 3.01707 39.0377 4.21707 34.5677C4.66602 32.8049 5.73477 31.2626 7.22772 30.2232C7.72059 29.8801 8.24882 29.5994 8.80043 29.3841C5.8588 25.4599 5.1069 20.0049 7.97708 15.6877C11.0166 11.1158 16.8138 9.68441 21.7575 11.298C22.2507 5.30538 27.645 1.30379 33.7671 0.257715C40.7899 -0.948933 45.0773 2.16245 47.3618 7.89755C52.6581 3.12272 60.5948 1.92697 66.9671 5.84772C73.1814 9.6719 75.6049 17.9865 71.1193 23.6085C75.725 25.9521 80.0955 29.9165 79.2471 35.5077C78.6116 39.7082 75.2313 42.4552 71.3683 43.0923C74.6384 49.5916 72.7883 56.3071 65.0871 59.4177C58.6181 62.0299 51.7133 59.8679 47.5573 54.8205C47.0581 55.8894 46.3579 56.8543 45.4929 57.6619C44.4807 58.6069 43.2687 59.3121 41.9469 59.7251C40.6251 60.1381 39.2273 60.2483 37.8571 60.0477C33.139 59.4236 30.0605 56.0833 28.6462 51.9875Z" fill="#FFA500"/>
<path d="M10.3572 59.6378C9.09995 60.0844 8.04971 60.976 7.40487 62.1441C6.76003 63.3121 6.56522 64.6759 6.85723 65.9778C7.27262 67.4023 8.22622 68.6092 9.51604 69.3428C10.8059 70.0763 12.3306 70.279 13.7672 69.9078C15.0845 69.5327 16.2067 68.6649 16.9012 67.4844C17.5957 66.304 17.8091 64.9014 17.4972 63.5678C16.7472 60.8378 13.7772 59.9578 11.3072 59.5678C9.16723 59.2678 8.24723 62.5678 10.4072 62.8378C11.5544 62.8831 12.6747 63.1983 13.6772 63.7578C13.8676 63.9151 14.0181 64.1151 14.1166 64.3415C14.2151 64.568 14.2589 64.8144 14.2443 65.0609C14.2296 65.3074 14.1571 65.5469 14.0325 65.7601C13.9079 65.9733 13.7348 66.1541 13.5272 66.2878C11.2372 68.0678 8.52723 63.9378 11.3072 62.8678C13.3072 62.0978 12.4472 58.8678 10.4072 59.5978L10.3572 59.6378Z" fill="#FFA500"/>
<path d="M2.50714 72.9075C1.57364 73.2472 0.809731 73.938 0.378224 74.8328C-0.0532837 75.7276 -0.11826 76.7555 0.197142 77.6975C0.382737 78.1873 0.665577 78.6344 1.02862 79.0119C1.39166 79.3895 1.82738 79.6896 2.30953 79.8943C2.79167 80.0989 3.31026 80.2038 3.83403 80.2026C4.3578 80.2014 4.87591 80.0943 5.35714 79.8875C5.87094 79.7226 6.34258 79.4476 6.73918 79.0817C7.13578 78.7158 7.44778 78.2677 7.65343 77.7688C7.85908 77.27 7.95342 76.7322 7.92988 76.1931C7.90634 75.654 7.76549 75.1265 7.51714 74.6475C7.0009 73.7643 6.16589 73.1125 5.18382 72.826C4.20174 72.5396 3.14724 72.6403 2.23714 73.1075C1.84936 73.3349 1.56747 73.7067 1.45315 74.1415C1.33883 74.5763 1.40139 75.0387 1.62714 75.4275C1.86161 75.8076 2.23402 76.0824 2.66644 76.1942C3.09885 76.306 3.55777 76.2463 3.94714 76.0275C3.75714 76.1175 4.22714 76.0275 3.94714 76.0275C4.18714 76.0275 3.99714 75.9375 4.29714 76.0275C4.39171 76.061 4.47023 76.1288 4.51714 76.2175C4.51714 76.2175 4.57714 76.4475 4.51714 76.3575V76.5875C4.70714 76.0875 4.72714 75.9675 4.51714 76.2475C4.33714 76.3475 4.27714 76.5775 4.16714 76.6275C4.05714 76.6775 3.68714 76.7575 3.83714 76.7375C3.76714 76.7375 3.37714 76.7375 3.50714 76.7375C3.32714 76.7375 3.26714 76.5275 3.35714 76.7375C3.35714 76.7375 3.23714 76.2275 3.28714 76.5075C3.22714 76.1975 3.22714 76.5075 3.28714 76.2675C3.34714 76.0275 3.36714 76.1275 3.35714 76.0875C3.34714 76.0475 3.55714 76.0175 3.28714 76.0875C3.71456 75.9572 4.07549 75.6676 4.29517 75.2785C4.51484 74.8894 4.57642 74.4307 4.46714 73.9975C4.3457 73.5665 4.05915 73.2008 3.6697 72.9799C3.28025 72.759 2.81937 72.7006 2.38714 72.8175L2.50714 72.9075Z" fill="#FFA500"/>
<path d="M22.075 23.75V29.575H22.375L27.375 22.875C27.75 22.375 28.25 22.15 28.825 22.15C29.9 22.15 30.525 23.1 30.525 23.825C30.525 24.075 30.475 24.325 30.25 24.675L25.325 31.175L30.25 37.7C30.475 38.05 30.525 38.3 30.525 38.55C30.525 39.275 29.9 40.225 28.825 40.225C28.25 40.225 27.75 40 27.375 39.5L22.35 32.775H22.075V38.6C22.075 39.475 21.275 40.225 20.325 40.225C19.35 40.225 18.575 39.475 18.575 38.6V23.75C18.575 22.9 19.35 22.15 20.325 22.15C21.275 22.15 22.075 22.9 22.075 23.75ZM33.9416 35.775L34.5916 28.875C34.6666 28.125 35.2166 27.375 36.0416 27.375H42.2916C43.4416 27.375 43.7666 28.375 43.7666 28.925V38.625C43.7666 39.5 43.0166 40.175 42.0416 40.175C41.0666 40.175 40.3166 39.5 40.3166 38.625V30.2H37.7666L37.2916 35.725C37.0416 38.375 36.0166 40.1 33.5416 40.1C32.3916 40.1 31.2666 39.825 31.2666 38.65C31.2666 37.575 32.1416 37 32.9416 37.15C33.0666 37.175 33.1666 37.2 33.2666 37.2C33.6666 37.2 33.8666 36.725 33.9416 35.775ZM50.8447 23.9C50.8447 24.875 49.9947 25.65 48.8947 25.65C47.7947 25.65 46.9447 24.85 46.9447 23.9C46.9447 22.925 47.7947 22.15 48.8947 22.15C49.9947 22.15 50.8447 22.95 50.8447 23.9ZM50.6197 28.775V38.625C50.6197 39.5 49.8697 40.175 48.8947 40.175C47.9197 40.175 47.1697 39.5 47.1697 38.625V28.775C47.1697 27.95 47.9197 27.25 48.8947 27.25C49.8697 27.25 50.6197 27.95 50.6197 28.775ZM57.8486 35.35H57.4986V38.625C57.4986 39.5 56.7486 40.175 55.7736 40.175C54.7986 40.175 54.0486 39.5 54.0486 38.625V28.775C54.0486 27.95 54.7986 27.25 55.7736 27.25C56.7486 27.25 57.4986 27.95 57.4986 28.775V32.1H57.8486L60.8986 27.975C61.2486 27.5 61.6986 27.275 62.3236 27.275C63.2486 27.275 63.9486 27.825 63.9986 28.675C63.9986 28.95 63.8986 29.325 63.7236 29.575L60.5736 33.725L63.7236 37.875C63.8986 38.125 63.9986 38.5 63.9986 38.775C63.9486 39.625 63.2486 40.175 62.3236 40.175C61.6986 40.175 61.2486 39.95 60.8986 39.475L57.8486 35.35Z" fill="black"/>
</svg>
