<svg version="1.1" xmlns="http://www.w3.org/2000/svg" xmlns:xlink="http://www.w3.org/1999/xlink" width="24.7769" height="19.4434">
 <g>
  <rect height="19.4434" opacity="0" width="24.7769" x="0" y="0"/>
  <path d="M3.79199 19.4434L21.1567 19.4434C23.4395 19.4434 24.7769 18.106 24.7769 15.6729L24.7769 3.78125C24.7769 1.35352 23.4341 0.0161133 20.9795 0.0161133L3.61475 0.0161133C1.3374 0.0161133 0 1.34814 0 3.78125L0 15.6729C0 18.1113 1.34277 19.4434 3.79199 19.4434ZM3.89404 16.833C3.02393 16.833 2.56201 16.4141 2.56201 15.4849L2.56201 3.96924C2.56201 3.05078 3.02393 2.62646 3.89404 2.62646L20.8774 2.62646C21.7422 2.62646 22.2148 3.05078 22.2148 3.97461L22.2148 15.4902C22.2148 16.4141 21.7422 16.833 20.8774 16.833ZM12.3965 12.7563C13.2666 12.7563 14.0776 12.3911 14.8833 11.5962L23.3857 3.22803L21.8013 1.62744L13.5029 9.8291C13.0786 10.248 12.751 10.4253 12.3965 10.4253C12.0366 10.4253 11.7144 10.2427 11.29 9.8291L2.97021 1.60596L1.38037 3.20117L9.9043 11.5962C10.7153 12.3911 11.521 12.7563 12.3965 12.7563ZM21.6187 17.4722L23.2085 15.8716L16.5 9.20605L14.9048 10.7959ZM1.5791 15.877L3.17432 17.4775L9.88818 10.7959L8.29297 9.20605Z" fill="#6495ED" fill-opacity="0.85"/>
 </g>
</svg>
