<svg version="1.0" xmlns="http://www.w3.org/2000/svg"
 width="512.000000pt" height="512.000000pt" viewBox="0 0 512.000000 512.000000"
 preserveAspectRatio="xMidYMid meet">
<g transform="translate(0.000000,512.000000) scale(0.100000,-0.100000)"
fill="#ffa500" stroke="none">
<path d="M597 4689 c-52 -8 -112 -52 -142 -103 l-26 -45 1 -536 c1 -592 -1
-574 65 -638 47 -46 91 -60 165 -55 68 5 120 36 160 95 25 36 25 38 28 295 2
142 6 258 10 258 4 0 162 -156 352 -346 190 -190 363 -356 385 -369 147 -87
325 15 325 187 0 78 -34 118 -406 483 l-357 350 260 5 260 5 39 27 c59 42 87
90 92 158 2 32 -1 74 -7 93 -16 47 -84 114 -130 127 -39 11 -1012 19 -1074 9z"/>
<path d="M3949 4690 l-506 -5 -39 -27 c-21 -15 -50 -44 -64 -65 -21 -31 -25
-48 -25 -113 0 -65 4 -82 25 -113 14 -21 43 -50 64 -65 l39 -27 255 -3 256 -3
-357 -357 c-369 -370 -396 -403 -397 -481 -1 -130 117 -237 241 -217 23 4 55
14 73 22 17 9 194 178 393 377 l362 361 3 -265 c3 -264 3 -266 28 -302 14 -21
43 -50 64 -65 35 -24 49 -27 116 -27 67 0 81 3 116 27 21 15 50 44 64 65 l25
37 3 535 c2 357 0 548 -8 572 -13 45 -80 114 -123 128 -54 16 -85 17 -608 11z"/>
<path d="M1620 1899 c-33 -15 -136 -111 -400 -375 -196 -194 -358 -354 -362
-354 -4 0 -8 114 -10 253 -3 252 -3 254 -28 290 -14 21 -43 50 -64 65 -35 24
-49 27 -116 27 -67 0 -81 -3 -116 -27 -21 -15 -50 -44 -64 -65 l-25 -37 -5
-515 c-3 -284 -2 -536 3 -560 9 -56 40 -103 91 -139 l39 -27 557 0 557 0 39
27 c21 15 50 44 64 65 21 31 25 48 25 113 0 65 -4 82 -25 113 -14 21 -43 50
-64 65 l-39 27 -265 5 -265 5 363 357 c376 370 410 411 410 486 0 123 -99 223
-221 222 -19 0 -54 -10 -79 -21z"/>
<path d="M3350 1907 c-76 -24 -140 -120 -140 -208 1 -78 28 -111 402 -486
l362 -362 -265 -3 c-264 -3 -266 -3 -302 -28 -21 -14 -50 -43 -65 -64 -24 -35
-27 -49 -27 -116 0 -65 4 -82 25 -113 14 -21 43 -50 64 -65 l39 -27 557 0 557
0 39 27 c51 36 82 83 91 139 5 24 6 276 3 560 l-5 515 -25 37 c-14 21 -43 50
-64 65 -35 24 -49 27 -116 27 -67 0 -81 -3 -116 -27 -21 -15 -50 -44 -64 -65
-25 -36 -25 -40 -30 -290 l-5 -253 -350 351 c-372 373 -405 400 -490 398 -22
-1 -56 -6 -75 -12z"/>
</g>
</svg>
