<svg width="294" height="39" viewBox="0 0 294 39" fill="none" xmlns="http://www.w3.org/2000/svg">
<path d="M15.4453 8.86719H18.7266V29.5508C18.7266 31.4128 18.349 33.0013 17.5938 34.3164C16.8385 35.6315 15.7839 36.6276 14.4297 37.3047C13.0885 37.9948 11.5391 38.3398 9.78125 38.3398C9.05208 38.3398 8.19271 38.2227 7.20312 37.9883C6.22656 37.7669 5.26302 37.3828 4.3125 36.8359C3.375 36.3021 2.58724 35.5794 1.94922 34.668L3.84375 32.5195C4.72917 33.5872 5.65365 34.3294 6.61719 34.7461C7.59375 35.1628 8.55729 35.3711 9.50781 35.3711C10.6536 35.3711 11.6432 35.1562 12.4766 34.7266C13.3099 34.2969 13.9544 33.6589 14.4102 32.8125C14.8789 31.9792 15.1133 30.9505 15.1133 29.7266V13.5156L15.4453 8.86719ZM0.894531 19.668V19.2578C0.894531 17.6432 1.08333 16.1784 1.46094 14.8633C1.85156 13.5352 2.40495 12.3958 3.12109 11.4453C3.85026 10.4948 4.72917 9.76562 5.75781 9.25781C6.78646 8.73698 7.94531 8.47656 9.23438 8.47656C10.5625 8.47656 11.7214 8.71094 12.7109 9.17969C13.7135 9.63542 14.5599 10.306 15.25 11.1914C15.9531 12.0638 16.5065 13.1185 16.9102 14.3555C17.3138 15.5924 17.5938 16.9922 17.75 18.5547V20.3516C17.6068 21.901 17.3268 23.2943 16.9102 24.5312C16.5065 25.7682 15.9531 26.8229 15.25 27.6953C14.5599 28.5677 13.7135 29.2383 12.7109 29.707C11.7083 30.1628 10.5365 30.3906 9.19531 30.3906C7.93229 30.3906 6.78646 30.1237 5.75781 29.5898C4.74219 29.056 3.86979 28.3073 3.14062 27.3438C2.41146 26.3802 1.85156 25.2474 1.46094 23.9453C1.08333 22.6302 0.894531 21.2044 0.894531 19.668ZM4.50781 19.2578V19.668C4.50781 20.7227 4.61198 21.7122 4.82031 22.6367C5.04167 23.5612 5.3737 24.375 5.81641 25.0781C6.27214 25.7812 6.85156 26.3346 7.55469 26.7383C8.25781 27.1289 9.09766 27.3242 10.0742 27.3242C11.2721 27.3242 12.2617 27.0703 13.043 26.5625C13.8242 26.0547 14.4427 25.3841 14.8984 24.5508C15.3672 23.7174 15.7318 22.8125 15.9922 21.8359V17.1289C15.849 16.4128 15.6276 15.7227 15.3281 15.0586C15.0417 14.3815 14.6641 13.7826 14.1953 13.2617C13.7396 12.7279 13.1732 12.3047 12.4961 11.9922C11.819 11.6797 11.0247 11.5234 10.1133 11.5234C9.1237 11.5234 8.27083 11.7318 7.55469 12.1484C6.85156 12.5521 6.27214 13.112 5.81641 13.8281C5.3737 14.5312 5.04167 15.3516 4.82031 16.2891C4.61198 17.2135 4.50781 18.2031 4.50781 19.2578ZM27.8281 12.1875V30H24.2148V8.86719H27.7305L27.8281 12.1875ZM34.4297 8.75L34.4102 12.1094C34.1107 12.0443 33.8242 12.0052 33.5508 11.9922C33.2904 11.9661 32.9909 11.9531 32.6523 11.9531C31.819 11.9531 31.0833 12.0833 30.4453 12.3438C29.8073 12.6042 29.2669 12.9688 28.8242 13.4375C28.3815 13.9062 28.0299 14.4661 27.7695 15.1172C27.5221 15.7552 27.3594 16.4583 27.2812 17.2266L26.2656 17.8125C26.2656 16.5365 26.3893 15.3385 26.6367 14.2188C26.8971 13.099 27.2943 12.1094 27.8281 11.25C28.362 10.3776 29.0391 9.70052 29.8594 9.21875C30.6927 8.72396 31.6823 8.47656 32.8281 8.47656C33.0885 8.47656 33.388 8.50911 33.7266 8.57422C34.0651 8.6263 34.2995 8.6849 34.4297 8.75ZM46.1484 30.3906C44.6771 30.3906 43.3424 30.1432 42.1445 29.6484C40.9596 29.1406 39.9375 28.431 39.0781 27.5195C38.2318 26.6081 37.5807 25.5273 37.125 24.2773C36.6693 23.0273 36.4414 21.6602 36.4414 20.1758V19.3555C36.4414 17.6367 36.6953 16.1068 37.2031 14.7656C37.7109 13.4115 38.401 12.2656 39.2734 11.3281C40.1458 10.3906 41.1354 9.68099 42.2422 9.19922C43.349 8.71745 44.4948 8.47656 45.6797 8.47656C47.1901 8.47656 48.4922 8.73698 49.5859 9.25781C50.6927 9.77865 51.5977 10.5078 52.3008 11.4453C53.0039 12.3698 53.5247 13.4635 53.8633 14.7266C54.2018 15.9766 54.3711 17.3438 54.3711 18.8281V20.4492H38.5898V17.5H50.7578V17.2266C50.7057 16.2891 50.5104 15.3776 50.1719 14.4922C49.8464 13.6068 49.3255 12.8776 48.6094 12.3047C47.8932 11.7318 46.9167 11.4453 45.6797 11.4453C44.8594 11.4453 44.1042 11.6211 43.4141 11.9727C42.724 12.3112 42.1315 12.819 41.6367 13.4961C41.1419 14.1732 40.7578 15 40.4844 15.9766C40.2109 16.9531 40.0742 18.0794 40.0742 19.3555V20.1758C40.0742 21.1784 40.2109 22.1224 40.4844 23.0078C40.7708 23.8802 41.181 24.6484 41.7148 25.3125C42.2617 25.9766 42.9193 26.4974 43.6875 26.875C44.4688 27.2526 45.3542 27.4414 46.3438 27.4414C47.6198 27.4414 48.7005 27.181 49.5859 26.6602C50.4714 26.1393 51.2461 25.4427 51.9102 24.5703L54.0977 26.3086C53.6419 26.9987 53.0625 27.6562 52.3594 28.2812C51.6562 28.9062 50.7904 29.4141 49.7617 29.8047C48.7461 30.1953 47.5417 30.3906 46.1484 30.3906ZM71.0508 26.3867V15.5078C71.0508 14.6745 70.8815 13.9518 70.543 13.3398C70.2174 12.7148 69.7227 12.2331 69.0586 11.8945C68.3945 11.556 67.5742 11.3867 66.5977 11.3867C65.6862 11.3867 64.8854 11.543 64.1953 11.8555C63.5182 12.168 62.9844 12.5781 62.5938 13.0859C62.2161 13.5938 62.0273 14.1406 62.0273 14.7266H58.4141C58.4141 13.9714 58.6094 13.2227 59 12.4805C59.3906 11.7383 59.9505 11.0677 60.6797 10.4688C61.4219 9.85677 62.3073 9.375 63.3359 9.02344C64.3776 8.65885 65.5365 8.47656 66.8125 8.47656C68.349 8.47656 69.7031 8.73698 70.875 9.25781C72.0599 9.77865 72.9844 10.5664 73.6484 11.6211C74.3255 12.6628 74.6641 13.9714 74.6641 15.5469V25.3906C74.6641 26.0938 74.7227 26.8424 74.8398 27.6367C74.9701 28.431 75.1589 29.1146 75.4062 29.6875V30H71.6367C71.4544 29.5833 71.3112 29.0299 71.207 28.3398C71.1029 27.6367 71.0508 26.9857 71.0508 26.3867ZM71.6758 17.1875L71.7148 19.7266H68.0625C67.0339 19.7266 66.1159 19.8112 65.3086 19.9805C64.5013 20.1367 63.8242 20.3776 63.2773 20.7031C62.7305 21.0286 62.3138 21.4388 62.0273 21.9336C61.7409 22.4154 61.5977 22.9818 61.5977 23.6328C61.5977 24.2969 61.7474 24.9023 62.0469 25.4492C62.3464 25.9961 62.7956 26.4323 63.3945 26.7578C64.0065 27.0703 64.7552 27.2266 65.6406 27.2266C66.7474 27.2266 67.724 26.9922 68.5703 26.5234C69.4167 26.0547 70.0872 25.4818 70.582 24.8047C71.0898 24.1276 71.3633 23.4701 71.4023 22.832L72.9453 24.5703C72.8542 25.1172 72.6068 25.7227 72.2031 26.3867C71.7995 27.0508 71.2591 27.6888 70.582 28.3008C69.918 28.8997 69.1237 29.401 68.1992 29.8047C67.2878 30.1953 66.2591 30.3906 65.1133 30.3906C63.681 30.3906 62.4245 30.1107 61.3438 29.5508C60.276 28.9909 59.4427 28.2422 58.8438 27.3047C58.2578 26.3542 57.9648 25.293 57.9648 24.1211C57.9648 22.9883 58.1862 21.9922 58.6289 21.1328C59.0716 20.2604 59.7096 19.5378 60.543 18.9648C61.3763 18.3789 62.3789 17.9362 63.5508 17.6367C64.7227 17.3372 66.0312 17.1875 67.4766 17.1875H71.6758ZM89.1953 8.86719V11.6406H77.7695V8.86719H89.1953ZM81.6367 3.73047H85.25V24.7656C85.25 25.4818 85.3607 26.0221 85.582 26.3867C85.8034 26.7513 86.0898 26.9922 86.4414 27.1094C86.793 27.2266 87.1706 27.2852 87.5742 27.2852C87.8737 27.2852 88.1862 27.2591 88.5117 27.207C88.8503 27.1419 89.1042 27.0898 89.2734 27.0508L89.293 30C89.0065 30.0911 88.6289 30.1758 88.1602 30.2539C87.7044 30.3451 87.151 30.3906 86.5 30.3906C85.6146 30.3906 84.8008 30.2148 84.0586 29.8633C83.3164 29.5117 82.724 28.9258 82.2812 28.1055C81.8516 27.2721 81.6367 26.1523 81.6367 24.7461V3.73047ZM97.0469 0V30H93.4336V0H97.0469ZM96.1875 18.6328L94.6836 18.5742C94.6966 17.1289 94.9115 15.7943 95.3281 14.5703C95.7448 13.3333 96.3307 12.2591 97.0859 11.3477C97.8411 10.4362 98.7396 9.73307 99.7812 9.23828C100.836 8.73047 102.001 8.47656 103.277 8.47656C104.319 8.47656 105.257 8.61979 106.09 8.90625C106.923 9.17969 107.633 9.6224 108.219 10.2344C108.818 10.8464 109.273 11.6406 109.586 12.6172C109.898 13.5807 110.055 14.7591 110.055 16.1523V30H106.422V16.1133C106.422 15.0065 106.259 14.1211 105.934 13.457C105.608 12.7799 105.133 12.2917 104.508 11.9922C103.883 11.6797 103.115 11.5234 102.203 11.5234C101.305 11.5234 100.484 11.7122 99.7422 12.0898C99.013 12.4674 98.3815 12.9883 97.8477 13.6523C97.3268 14.3164 96.9167 15.0781 96.6172 15.9375C96.3307 16.7839 96.1875 17.6823 96.1875 18.6328ZM114.508 19.668V19.2188C114.508 17.6953 114.729 16.2826 115.172 14.9805C115.615 13.6654 116.253 12.526 117.086 11.5625C117.919 10.5859 118.928 9.83073 120.113 9.29688C121.298 8.75 122.626 8.47656 124.098 8.47656C125.582 8.47656 126.917 8.75 128.102 9.29688C129.299 9.83073 130.315 10.5859 131.148 11.5625C131.995 12.526 132.639 13.6654 133.082 14.9805C133.525 16.2826 133.746 17.6953 133.746 19.2188V19.668C133.746 21.1914 133.525 22.6042 133.082 23.9062C132.639 25.2083 131.995 26.3477 131.148 27.3242C130.315 28.2878 129.306 29.043 128.121 29.5898C126.949 30.1237 125.621 30.3906 124.137 30.3906C122.652 30.3906 121.318 30.1237 120.133 29.5898C118.948 29.043 117.932 28.2878 117.086 27.3242C116.253 26.3477 115.615 25.2083 115.172 23.9062C114.729 22.6042 114.508 21.1914 114.508 19.668ZM118.121 19.2188V19.668C118.121 20.7227 118.245 21.7188 118.492 22.6562C118.74 23.5807 119.111 24.401 119.605 25.1172C120.113 25.8333 120.745 26.3997 121.5 26.8164C122.255 27.2201 123.134 27.4219 124.137 27.4219C125.126 27.4219 125.992 27.2201 126.734 26.8164C127.49 26.3997 128.115 25.8333 128.609 25.1172C129.104 24.401 129.475 23.5807 129.723 22.6562C129.983 21.7188 130.113 20.7227 130.113 19.668V19.2188C130.113 18.1771 129.983 17.194 129.723 16.2695C129.475 15.332 129.098 14.5052 128.59 13.7891C128.095 13.0599 127.47 12.487 126.715 12.0703C125.973 11.6536 125.1 11.4453 124.098 11.4453C123.108 11.4453 122.236 11.6536 121.48 12.0703C120.738 12.487 120.113 13.0599 119.605 13.7891C119.111 14.5052 118.74 15.332 118.492 16.2695C118.245 17.194 118.121 18.1771 118.121 19.2188ZM151.207 25.1172V8.86719H154.84V30H151.383L151.207 25.1172ZM151.891 20.6641L153.395 20.625C153.395 22.0312 153.245 23.3333 152.945 24.5312C152.659 25.7161 152.19 26.7448 151.539 27.6172C150.888 28.4896 150.035 29.1732 148.98 29.668C147.926 30.1497 146.643 30.3906 145.133 30.3906C144.104 30.3906 143.16 30.2409 142.301 29.9414C141.454 29.6419 140.725 29.1797 140.113 28.5547C139.501 27.9297 139.026 27.1159 138.688 26.1133C138.362 25.1107 138.199 23.9062 138.199 22.5V8.86719H141.812V22.5391C141.812 23.4896 141.917 24.2773 142.125 24.9023C142.346 25.5143 142.639 26.0026 143.004 26.3672C143.382 26.7188 143.798 26.9661 144.254 27.1094C144.723 27.2526 145.204 27.3242 145.699 27.3242C147.236 27.3242 148.453 27.0312 149.352 26.4453C150.25 25.8464 150.895 25.0456 151.285 24.043C151.689 23.0273 151.891 21.901 151.891 20.6641ZM172.652 24.3945C172.652 23.8737 172.535 23.3919 172.301 22.9492C172.079 22.4935 171.617 22.0833 170.914 21.7188C170.224 21.3411 169.182 21.0156 167.789 20.7422C166.617 20.4948 165.556 20.2018 164.605 19.8633C163.668 19.5247 162.867 19.1146 162.203 18.6328C161.552 18.151 161.051 17.5846 160.699 16.9336C160.348 16.2826 160.172 15.5208 160.172 14.6484C160.172 13.8151 160.354 13.0273 160.719 12.2852C161.096 11.543 161.624 10.8854 162.301 10.3125C162.991 9.73958 163.818 9.29036 164.781 8.96484C165.745 8.63932 166.819 8.47656 168.004 8.47656C169.697 8.47656 171.142 8.77604 172.34 9.375C173.538 9.97396 174.456 10.7747 175.094 11.7773C175.732 12.7669 176.051 13.8672 176.051 15.0781H172.438C172.438 14.4922 172.262 13.9258 171.91 13.3789C171.572 12.819 171.07 12.3568 170.406 11.9922C169.755 11.6276 168.954 11.4453 168.004 11.4453C167.001 11.4453 166.188 11.6016 165.562 11.9141C164.951 12.2135 164.501 12.5977 164.215 13.0664C163.941 13.5352 163.805 14.0299 163.805 14.5508C163.805 14.9414 163.87 15.293 164 15.6055C164.143 15.9049 164.391 16.1849 164.742 16.4453C165.094 16.6927 165.589 16.9271 166.227 17.1484C166.865 17.3698 167.678 17.5911 168.668 17.8125C170.4 18.2031 171.826 18.6719 172.945 19.2188C174.065 19.7656 174.898 20.4362 175.445 21.2305C175.992 22.0247 176.266 22.9883 176.266 24.1211C176.266 25.0456 176.07 25.8919 175.68 26.6602C175.302 27.4284 174.749 28.0924 174.02 28.6523C173.303 29.1992 172.444 29.6289 171.441 29.9414C170.452 30.2409 169.339 30.3906 168.102 30.3906C166.24 30.3906 164.664 30.0586 163.375 29.3945C162.086 28.7305 161.109 27.8711 160.445 26.8164C159.781 25.7617 159.449 24.6484 159.449 23.4766H163.082C163.134 24.4661 163.421 25.2539 163.941 25.8398C164.462 26.4128 165.1 26.8229 165.855 27.0703C166.611 27.3047 167.359 27.4219 168.102 27.4219C169.091 27.4219 169.918 27.2917 170.582 27.0312C171.259 26.7708 171.773 26.4128 172.125 25.957C172.477 25.5013 172.652 24.9805 172.652 24.3945ZM189.781 30.3906C188.31 30.3906 186.975 30.1432 185.777 29.6484C184.592 29.1406 183.57 28.431 182.711 27.5195C181.865 26.6081 181.214 25.5273 180.758 24.2773C180.302 23.0273 180.074 21.6602 180.074 20.1758V19.3555C180.074 17.6367 180.328 16.1068 180.836 14.7656C181.344 13.4115 182.034 12.2656 182.906 11.3281C183.779 10.3906 184.768 9.68099 185.875 9.19922C186.982 8.71745 188.128 8.47656 189.312 8.47656C190.823 8.47656 192.125 8.73698 193.219 9.25781C194.326 9.77865 195.23 10.5078 195.934 11.4453C196.637 12.3698 197.158 13.4635 197.496 14.7266C197.835 15.9766 198.004 17.3438 198.004 18.8281V20.4492H182.223V17.5H194.391V17.2266C194.339 16.2891 194.143 15.3776 193.805 14.4922C193.479 13.6068 192.958 12.8776 192.242 12.3047C191.526 11.7318 190.549 11.4453 189.312 11.4453C188.492 11.4453 187.737 11.6211 187.047 11.9727C186.357 12.3112 185.764 12.819 185.27 13.4961C184.775 14.1732 184.391 15 184.117 15.9766C183.844 16.9531 183.707 18.0794 183.707 19.3555V20.1758C183.707 21.1784 183.844 22.1224 184.117 23.0078C184.404 23.8802 184.814 24.6484 185.348 25.3125C185.895 25.9766 186.552 26.4974 187.32 26.875C188.102 27.2526 188.987 27.4414 189.977 27.4414C191.253 27.4414 192.333 27.181 193.219 26.6602C194.104 26.1393 194.879 25.4427 195.543 24.5703L197.73 26.3086C197.275 26.9987 196.695 27.6562 195.992 28.2812C195.289 28.9062 194.423 29.4141 193.395 29.8047C192.379 30.1953 191.174 30.3906 189.781 30.3906ZM202.281 28.0859C202.281 27.474 202.47 26.9596 202.848 26.543C203.238 26.1133 203.798 25.8984 204.527 25.8984C205.257 25.8984 205.81 26.1133 206.188 26.543C206.578 26.9596 206.773 27.474 206.773 28.0859C206.773 28.6849 206.578 29.1927 206.188 29.6094C205.81 30.026 205.257 30.2344 204.527 30.2344C203.798 30.2344 203.238 30.026 202.848 29.6094C202.47 29.1927 202.281 28.6849 202.281 28.0859ZM216.383 12.1875V30H212.77V8.86719H216.285L216.383 12.1875ZM222.984 8.75L222.965 12.1094C222.665 12.0443 222.379 12.0052 222.105 11.9922C221.845 11.9661 221.546 11.9531 221.207 11.9531C220.374 11.9531 219.638 12.0833 219 12.3438C218.362 12.6042 217.822 12.9688 217.379 13.4375C216.936 13.9062 216.585 14.4661 216.324 15.1172C216.077 15.7552 215.914 16.4583 215.836 17.2266L214.82 17.8125C214.82 16.5365 214.944 15.3385 215.191 14.2188C215.452 13.099 215.849 12.1094 216.383 11.25C216.917 10.3776 217.594 9.70052 218.414 9.21875C219.247 8.72396 220.237 8.47656 221.383 8.47656C221.643 8.47656 221.943 8.50911 222.281 8.57422C222.62 8.6263 222.854 8.6849 222.984 8.75ZM233.102 26.7383L238.883 8.86719H242.574L234.977 30H232.555L233.102 26.7383ZM228.277 8.86719L234.234 26.8359L234.645 30H232.223L224.566 8.86719H228.277ZM244 28.0859C244 27.474 244.189 26.9596 244.566 26.543C244.957 26.1133 245.517 25.8984 246.246 25.8984C246.975 25.8984 247.529 26.1133 247.906 26.543C248.297 26.9596 248.492 27.474 248.492 28.0859C248.492 28.6849 248.297 29.1927 247.906 29.6094C247.529 30.026 246.975 30.2344 246.246 30.2344C245.517 30.2344 244.957 30.026 244.566 29.6094C244.189 29.1927 244 28.6849 244 28.0859ZM267.418 25.1172V8.86719H271.051V30H267.594L267.418 25.1172ZM268.102 20.6641L269.605 20.625C269.605 22.0312 269.456 23.3333 269.156 24.5312C268.87 25.7161 268.401 26.7448 267.75 27.6172C267.099 28.4896 266.246 29.1732 265.191 29.668C264.137 30.1497 262.854 30.3906 261.344 30.3906C260.315 30.3906 259.371 30.2409 258.512 29.9414C257.665 29.6419 256.936 29.1797 256.324 28.5547C255.712 27.9297 255.237 27.1159 254.898 26.1133C254.573 25.1107 254.41 23.9062 254.41 22.5V8.86719H258.023V22.5391C258.023 23.4896 258.128 24.2773 258.336 24.9023C258.557 25.5143 258.85 26.0026 259.215 26.3672C259.592 26.7188 260.009 26.9661 260.465 27.1094C260.934 27.2526 261.415 27.3242 261.91 27.3242C263.447 27.3242 264.664 27.0312 265.562 26.4453C266.461 25.8464 267.105 25.0456 267.496 24.043C267.9 23.0273 268.102 21.901 268.102 20.6641ZM289.02 26.3867V15.5078C289.02 14.6745 288.85 13.9518 288.512 13.3398C288.186 12.7148 287.691 12.2331 287.027 11.8945C286.363 11.556 285.543 11.3867 284.566 11.3867C283.655 11.3867 282.854 11.543 282.164 11.8555C281.487 12.168 280.953 12.5781 280.562 13.0859C280.185 13.5938 279.996 14.1406 279.996 14.7266H276.383C276.383 13.9714 276.578 13.2227 276.969 12.4805C277.359 11.7383 277.919 11.0677 278.648 10.4688C279.391 9.85677 280.276 9.375 281.305 9.02344C282.346 8.65885 283.505 8.47656 284.781 8.47656C286.318 8.47656 287.672 8.73698 288.844 9.25781C290.029 9.77865 290.953 10.5664 291.617 11.6211C292.294 12.6628 292.633 13.9714 292.633 15.5469V25.3906C292.633 26.0938 292.691 26.8424 292.809 27.6367C292.939 28.431 293.128 29.1146 293.375 29.6875V30H289.605C289.423 29.5833 289.28 29.0299 289.176 28.3398C289.072 27.6367 289.02 26.9857 289.02 26.3867ZM289.645 17.1875L289.684 19.7266H286.031C285.003 19.7266 284.085 19.8112 283.277 19.9805C282.47 20.1367 281.793 20.3776 281.246 20.7031C280.699 21.0286 280.283 21.4388 279.996 21.9336C279.71 22.4154 279.566 22.9818 279.566 23.6328C279.566 24.2969 279.716 24.9023 280.016 25.4492C280.315 25.9961 280.764 26.4323 281.363 26.7578C281.975 27.0703 282.724 27.2266 283.609 27.2266C284.716 27.2266 285.693 26.9922 286.539 26.5234C287.385 26.0547 288.056 25.4818 288.551 24.8047C289.059 24.1276 289.332 23.4701 289.371 22.832L290.914 24.5703C290.823 25.1172 290.576 25.7227 290.172 26.3867C289.768 27.0508 289.228 27.6888 288.551 28.3008C287.887 28.8997 287.092 29.401 286.168 29.8047C285.257 30.1953 284.228 30.3906 283.082 30.3906C281.65 30.3906 280.393 30.1107 279.312 29.5508C278.245 28.9909 277.411 28.2422 276.812 27.3047C276.227 26.3542 275.934 25.293 275.934 24.1211C275.934 22.9883 276.155 21.9922 276.598 21.1328C277.04 20.2604 277.678 19.5378 278.512 18.9648C279.345 18.3789 280.348 17.9362 281.52 17.6367C282.691 17.3372 284 17.1875 285.445 17.1875H289.645Z" fill="white"/>
</svg>
