<?xml version="1.0" standalone="no"?>
<!DOCTYPE svg PUBLIC "-//W3C//DTD SVG 20010904//EN"
 "http://www.w3.org/TR/2001/REC-SVG-20010904/DTD/svg10.dtd">
<svg version="1.0" xmlns="http://www.w3.org/2000/svg"
 width="512.000000pt" height="512.000000pt" viewBox="0 0 512.000000 512.000000"
 preserveAspectRatio="xMidYMid meet">

<g transform="translate(0.000000,512.000000) scale(0.100000,-0.100000)"
fill="#F1C40F" stroke="none">
<path d="M412 5103 c-43 -21 -80 -66 -87 -106 -10 -53 373 -4386 391 -4423 21
-43 51 -68 104 -87 84 -30 1717 -487 1740 -487 26 0 1752 485 1781 500 41 23
69 75 79 151 5 41 93 1030 196 2199 208 2371 197 2172 121 2234 l-39 31 -2126
2 c-1943 2 -2130 1 -2160 -14z m4048 -334 c0 -31 -334 -3859 -345 -3955 l-6
-51 -775 -218 -774 -219 -775 219 -774 218 -6 41 c-8 66 -345 3931 -345 3965
l0 31 1900 0 1900 0 0 -31z"/>
<path d="M1375 4146 c-41 -18 -83 -69 -90 -109 -3 -18 -5 -334 -3 -704 3 -660
3 -672 24 -699 11 -15 33 -37 48 -48 27 -21 35 -21 1082 -24 829 -2 1054 -5
1054 -15 0 -6 -25 -195 -57 -419 l-58 -408 -407 -136 -408 -136 -399 133 -400
133 -3 212 -3 211 -29 37 c-68 90 -190 86 -260 -8 -20 -26 -21 -43 -24 -307
-3 -260 -2 -282 17 -324 12 -27 33 -52 53 -65 40 -24 1014 -350 1048 -350 28
0 978 314 1032 341 48 24 73 62 87 129 28 142 162 1129 157 1158 -7 44 -46 95
-89 116 -32 14 -133 16 -1091 16 l-1056 0 0 480 0 480 1055 0 c1167 0 1098 -4
1151 66 24 31 29 47 29 94 0 47 -5 63 -29 94 -53 70 26 66 -1248 66 -936 -1
-1159 -3 -1183 -14z"/>
</g>
</svg>
