<?xml version="1.0" encoding="UTF-8"?>
<svg xmlns="http://www.w3.org/2000/svg" xmlns:xlink="http://www.w3.org/1999/xlink" width="22px" height="22px" viewBox="0 0 22 22" version="1.1">
<defs>
<radialGradient id="radial0" gradientUnits="userSpaceOnUse" cx="158.429" cy="578.088" fx="158.429" fy="578.088" r="65" gradientTransform="matrix(0,-0.33033,0.307317,0,-171.733,75.834)">
<stop offset="0" style="stop-color:rgb(100%,86.666667%,33.333333%);stop-opacity:1;"/>
<stop offset="0.1" style="stop-color:rgb(100%,86.666667%,33.333333%);stop-opacity:1;"/>
<stop offset="0.5" style="stop-color:rgb(100%,32.941176%,24.313725%);stop-opacity:1;"/>
<stop offset="1" style="stop-color:rgb(78.431373%,21.568627%,67.058824%);stop-opacity:1;"/>
</radialGradient>
<radialGradient id="radial1" gradientUnits="userSpaceOnUse" cx="147.694" cy="473.455" fx="147.694" fy="473.455" r="65" gradientTransform="matrix(0.02899,0.144787,-0.596967,0.11953,274.892,-76.248833)">
<stop offset="0" style="stop-color:rgb(21.568627%,44.313725%,78.431373%);stop-opacity:1;"/>
<stop offset="0.128" style="stop-color:rgb(21.568627%,44.313725%,78.431373%);stop-opacity:1;"/>
<stop offset="1" style="stop-color:rgb(40%,0%,100%);stop-opacity:0;"/>
</radialGradient>
</defs>
<g id="surface1">
<path style=" stroke:none;fill-rule:nonzero;fill:url(#radial0);" d="M 11.003906 0.167969 C 6.480469 0.167969 5.160156 0.171875 4.902344 0.191406 C 3.972656 0.269531 3.394531 0.414062 2.765625 0.730469 C 2.28125 0.96875 1.898438 1.25 1.523438 1.640625 C 0.835938 2.355469 0.417969 3.230469 0.265625 4.277344 C 0.191406 4.78125 0.171875 4.886719 0.167969 7.472656 C 0.164062 8.335938 0.167969 9.472656 0.167969 10.996094 C 0.167969 15.515625 0.171875 16.835938 0.195312 17.09375 C 0.269531 17.996094 0.410156 18.566406 0.710938 19.1875 C 1.285156 20.375 2.378906 21.269531 3.667969 21.601562 C 4.117188 21.71875 4.609375 21.78125 5.242188 21.8125 C 5.511719 21.824219 8.246094 21.832031 10.984375 21.832031 C 13.71875 21.832031 16.457031 21.828125 16.71875 21.816406 C 17.449219 21.78125 17.875 21.722656 18.347656 21.601562 C 19.644531 21.265625 20.722656 20.386719 21.304688 19.179688 C 21.601562 18.574219 21.75 17.984375 21.816406 17.128906 C 21.832031 16.941406 21.835938 13.964844 21.835938 10.992188 C 21.835938 8.019531 21.832031 5.046875 21.816406 4.863281 C 21.746094 3.992188 21.597656 3.40625 21.296875 2.789062 C 21.046875 2.28125 20.769531 1.90625 20.367188 1.519531 C 19.652344 0.832031 18.773438 0.417969 17.730469 0.265625 C 17.222656 0.191406 17.121094 0.171875 14.53125 0.167969 Z M 11.003906 0.167969 "/>
<path style=" stroke:none;fill-rule:nonzero;fill:url(#radial1);" d="M 11.003906 0.167969 C 6.480469 0.167969 5.160156 0.171875 4.902344 0.191406 C 3.972656 0.269531 3.394531 0.414062 2.765625 0.730469 C 2.28125 0.96875 1.898438 1.25 1.523438 1.640625 C 0.835938 2.355469 0.417969 3.230469 0.265625 4.277344 C 0.191406 4.78125 0.171875 4.886719 0.167969 7.472656 C 0.164062 8.335938 0.167969 9.472656 0.167969 10.996094 C 0.167969 15.515625 0.171875 16.835938 0.195312 17.09375 C 0.269531 17.996094 0.410156 18.566406 0.710938 19.1875 C 1.285156 20.375 2.378906 21.269531 3.667969 21.601562 C 4.117188 21.71875 4.609375 21.78125 5.242188 21.8125 C 5.511719 21.824219 8.246094 21.832031 10.984375 21.832031 C 13.71875 21.832031 16.457031 21.828125 16.71875 21.816406 C 17.449219 21.78125 17.875 21.722656 18.347656 21.601562 C 19.644531 21.265625 20.722656 20.386719 21.304688 19.179688 C 21.601562 18.574219 21.75 17.984375 21.816406 17.128906 C 21.832031 16.941406 21.835938 13.964844 21.835938 10.992188 C 21.835938 8.019531 21.832031 5.046875 21.816406 4.863281 C 21.746094 3.992188 21.597656 3.40625 21.296875 2.789062 C 21.046875 2.28125 20.769531 1.90625 20.367188 1.519531 C 19.652344 0.832031 18.773438 0.417969 17.730469 0.265625 C 17.222656 0.191406 17.121094 0.171875 14.53125 0.167969 Z M 11.003906 0.167969 "/>
<path style=" stroke:none;fill-rule:nonzero;fill:rgb(100%,100%,100%);fill-opacity:1;" d="M 11 3 C 8.828125 3 8.554688 3.007812 7.703125 3.046875 C 6.851562 3.085938 6.269531 3.222656 5.761719 3.421875 C 5.234375 3.625 4.789062 3.898438 4.34375 4.34375 C 3.898438 4.789062 3.625 5.234375 3.417969 5.757812 C 3.222656 6.269531 3.085938 6.851562 3.046875 7.699219 C 3.011719 8.554688 3 8.828125 3 11 C 3 13.171875 3.007812 13.445312 3.046875 14.296875 C 3.085938 15.148438 3.222656 15.730469 3.421875 16.238281 C 3.625 16.765625 3.898438 17.210938 4.34375 17.65625 C 4.789062 18.101562 5.234375 18.375 5.757812 18.578125 C 6.269531 18.777344 6.851562 18.914062 7.703125 18.953125 C 8.554688 18.992188 8.828125 19 11 19 C 13.171875 19 13.445312 18.992188 14.296875 18.953125 C 15.148438 18.914062 15.730469 18.777344 16.242188 18.578125 C 16.765625 18.375 17.210938 18.101562 17.65625 17.65625 C 18.101562 17.210938 18.375 16.765625 18.578125 16.238281 C 18.777344 15.730469 18.910156 15.148438 18.953125 14.296875 C 18.988281 13.445312 19 13.171875 19 11 C 19 8.828125 18.988281 8.554688 18.953125 7.703125 C 18.910156 6.851562 18.777344 6.269531 18.578125 5.757812 C 18.375 5.234375 18.101562 4.789062 17.65625 4.34375 C 17.210938 3.898438 16.765625 3.625 16.238281 3.421875 C 15.730469 3.222656 15.148438 3.085938 14.296875 3.046875 C 13.441406 3.007812 13.171875 3 11 3 Z M 10.28125 4.441406 C 10.496094 4.441406 10.734375 4.441406 11 4.441406 C 13.136719 4.441406 13.390625 4.449219 14.234375 4.488281 C 15.011719 4.523438 15.4375 4.652344 15.71875 4.761719 C 16.09375 4.90625 16.359375 5.082031 16.636719 5.363281 C 16.917969 5.640625 17.089844 5.90625 17.238281 6.28125 C 17.347656 6.5625 17.476562 6.988281 17.511719 7.765625 C 17.550781 8.609375 17.558594 8.863281 17.558594 11 C 17.558594 13.132812 17.550781 13.386719 17.511719 14.230469 C 17.476562 15.011719 17.347656 15.433594 17.238281 15.714844 C 17.089844 16.089844 16.917969 16.355469 16.636719 16.632812 C 16.359375 16.914062 16.09375 17.085938 15.71875 17.230469 C 15.4375 17.34375 15.011719 17.472656 14.234375 17.507812 C 13.390625 17.546875 13.136719 17.554688 11 17.554688 C 8.863281 17.554688 8.613281 17.546875 7.769531 17.507812 C 6.988281 17.472656 6.566406 17.339844 6.28125 17.230469 C 5.910156 17.085938 5.640625 16.914062 5.363281 16.632812 C 5.082031 16.355469 4.910156 16.085938 4.765625 15.714844 C 4.65625 15.433594 4.523438 15.007812 4.488281 14.230469 C 4.449219 13.386719 4.441406 13.132812 4.441406 10.996094 C 4.441406 8.859375 4.449219 8.609375 4.488281 7.765625 C 4.523438 6.984375 4.65625 6.5625 4.765625 6.277344 C 4.910156 5.90625 5.082031 5.640625 5.363281 5.359375 C 5.640625 5.078125 5.910156 4.90625 6.28125 4.761719 C 6.566406 4.652344 6.988281 4.519531 7.769531 4.484375 C 8.507812 4.453125 8.792969 4.441406 10.28125 4.441406 Z M 15.269531 5.769531 C 14.742188 5.769531 14.3125 6.199219 14.3125 6.730469 C 14.3125 7.257812 14.742188 7.691406 15.269531 7.691406 C 15.800781 7.691406 16.230469 7.257812 16.230469 6.730469 C 16.230469 6.199219 15.800781 5.769531 15.269531 5.769531 Z M 11 6.890625 C 8.730469 6.890625 6.890625 8.730469 6.890625 11 C 6.890625 13.269531 8.730469 15.109375 11 15.109375 C 13.269531 15.109375 15.109375 13.269531 15.109375 11 C 15.109375 8.730469 13.269531 6.890625 11 6.890625 Z M 11 8.332031 C 12.472656 8.332031 13.667969 9.527344 13.667969 11 C 13.667969 12.472656 12.472656 13.667969 11 13.667969 C 9.527344 13.667969 8.335938 12.472656 8.335938 11 C 8.335938 9.527344 9.527344 8.332031 11 8.332031 Z M 11 8.332031 "/>
</g>
</svg>
