<svg version="1.0" xmlns="http://www.w3.org/2000/svg"
 width="348.000000pt" height="354.000000pt" viewBox="0 0 348.000000 354.000000"
 preserveAspectRatio="xMidYMid meet">

<g transform="translate(0.000000,354.000000) scale(0.100000,-0.100000)"
fill="#F1C40F" stroke="none">
<path d="M464 3350 c-95 -19 -163 -64 -219 -145 -68 -97 -66 -52 -63 -1443 l3
-1247 28 -60 c43 -93 107 -152 200 -186 50 -18 100 -19 1314 -19 941 0 1274 3
1307 12 107 28 214 139 236 241 7 36 10 451 8 1327 l-3 1275 -23 50 c-46 100
-142 173 -257 194 -70 13 -2466 14 -2531 1z m2576 -182 c47 -27 71 -64 89
-133 17 -61 15 -2407 -1 -2477 -18 -77 -74 -130 -153 -146 -80 -16 -2426 -17
-2476 -1 -64 20 -100 44 -127 84 l-27 40 0 1265 0 1265 23 37 c26 41 68 76
110 88 15 5 587 8 1272 7 l1245 -2 45 -27z"/>
<path d="M2361 1989 c-116 -23 -234 -110 -283 -208 -20 -40 -23 -61 -23 -161
0 -103 3 -121 26 -171 53 -113 160 -200 336 -276 168 -73 222 -107 244 -158
16 -35 17 -48 8 -76 -35 -103 -162 -146 -294 -100 -61 22 -97 48 -141 103 -16
20 -34 39 -41 42 -12 5 -145 -64 -205 -106 -32 -22 -30 -33 24 -102 109 -138
265 -206 473 -206 153 0 262 39 356 127 73 68 102 136 107 248 5 105 -13 185
-55 250 -56 85 -126 133 -359 246 -181 87 -204 109 -204 190 0 57 19 83 75
104 76 30 168 2 216 -66 11 -16 25 -29 31 -29 6 0 58 30 115 66 l103 66 -17
29 c-32 54 -117 132 -170 156 -86 40 -217 53 -322 32z"/>
<path d="M1510 1461 c0 -442 -2 -524 -15 -555 -45 -107 -209 -101 -290 12 -21
29 -36 41 -50 39 -34 -5 -205 -120 -205 -138 0 -25 59 -107 104 -143 91 -75
185 -106 321 -106 182 0 303 67 369 204 45 95 48 138 50 686 l1 515 -142 3
-143 3 0 -520z"/>
</g>
</svg>
