<svg width="20" height="29" viewBox="0 0 20 29" fill="none" xmlns="http://www.w3.org/2000/svg">
<path d="M3.32763 28.0247H16.6723C18.8702 28.0247 20 26.8743 20 24.4847V14.3171C20 11.948 18.8702 10.8045 16.6723 10.8045H3.32763C1.1229 10.8045 0 11.948 0 14.3171V24.4847C0 26.8743 1.1229 28.0247 3.32763 28.0247ZM2.69086 12.126H5.94317L5.95001 7.52482C5.95001 4.75864 7.74392 3.13591 9.99658 3.13591C12.2355 3.13591 14.0637 4.75864 14.0637 7.52482L14.0499 12.126H17.3023L17.3092 7.69599C17.3092 2.81411 14.0089 0 9.99658 0C5.9911 0 2.69771 2.81411 2.69771 7.69599L2.69086 12.126Z" fill="#E2E1E1"/>
</svg>
