<svg width="70" height="83" viewBox="0 0 19 23" fill="none" xmlns="http://www.w3.org/2000/svg">
<path d="M9.56956 0.00452358C9.48272 0.00580138 9.3975 0.0281381 9.32134 0.0696025C9.24517 0.111067 9.18036 0.170391 9.13256 0.242418C8.16259 1.6492 5.08814 2.84514 1.57066 2.86581C1.56371 2.86568 1.55677 2.86568 1.54983 2.86581C1.52696 2.86191 1.50386 2.85948 1.48068 2.85857C1.35774 2.85803 1.23839 2.89974 1.14287 2.97662C1.04734 3.05349 0.981518 3.1608 0.956546 3.28037C0.956546 3.28037 0.424908 5.67129 0.158586 8.56315C-0.10775 11.4551 -0.162656 14.8416 1.00632 17.0281C1.88204 18.6661 3.95402 19.9826 5.80374 20.9847C7.5146 21.9116 8.92564 22.4725 9.14768 22.5599C9.24816 22.6374 9.37325 22.6766 9.50033 22.6705C9.62916 22.6769 9.75593 22.6365 9.85713 22.5571C9.85783 22.5571 9.85854 22.5571 9.85925 22.5571C10.0904 22.4663 11.4944 21.9096 13.199 20.9861C15.0487 19.984 17.118 18.6675 17.9937 17.0295C19.1627 14.843 19.1077 11.4565 18.8414 8.56458C18.5751 5.67271 18.0435 3.2818 18.0435 3.2818C18.0181 3.15987 17.9502 3.05074 17.8518 2.97359C17.7534 2.89645 17.6308 2.85622 17.5055 2.85999C17.4907 2.85939 17.476 2.85939 17.4612 2.85999C14.0814 2.84653 11.1123 1.71405 10.0763 0.347215C10.0384 0.244258 9.96913 0.155575 9.87822 0.0933854C9.7873 0.0311962 9.67918 -0.00142939 9.5688 4.80515e-05L9.56956 0.00452358ZM9.55986 1.38333C11.0453 2.9502 13.8958 3.83117 17.0789 3.90856C17.1856 4.41249 17.556 6.215 17.7814 8.66306C18.0409 11.4802 17.9868 14.7875 17.0526 16.5347C16.4117 17.7335 14.4707 19.0927 12.6881 20.0585C11.0744 20.9327 9.76302 21.4577 9.5004 21.5617C9.23776 21.4577 7.92643 20.9327 6.31272 20.0585C4.53013 19.0927 2.58907 17.7335 1.94818 16.5347C1.01402 14.7875 0.959926 11.4802 1.21937 8.66306C1.44472 6.21621 1.81497 4.41518 1.9219 3.90991C5.16024 3.83278 8.05436 2.95233 9.55986 1.38333Z" fill="#6495ED"/>
<path d="M7.09434 8.1012C7.2004 8.10135 7.304 8.13298 7.39187 8.19205C7.47975 8.25112 7.54791 8.33494 7.58762 8.43278C7.62732 8.53061 7.63678 8.63801 7.61477 8.74122C7.59276 8.84443 7.54028 8.93876 7.46406 9.01213L5.12229 11.3338L7.46406 13.6554C7.51574 13.704 7.5571 13.7625 7.58571 13.8273C7.61432 13.892 7.6296 13.9619 7.63063 14.0327C7.63167 14.1034 7.61846 14.1737 7.59176 14.2393C7.56507 14.3049 7.52544 14.3645 7.47521 14.4146C7.42498 14.4647 7.36518 14.5043 7.29931 14.5311C7.23345 14.5579 7.16287 14.5712 7.09174 14.5704C7.0206 14.5696 6.95035 14.5546 6.88513 14.5263C6.8199 14.4981 6.76103 14.4571 6.71198 14.4058L3.99188 11.709C3.94227 11.6598 3.90292 11.6013 3.87606 11.5369C3.84921 11.4725 3.83539 11.4035 3.83539 11.3338C3.83539 11.2641 3.84921 11.195 3.87606 11.1307C3.90292 11.0663 3.94227 11.0078 3.99188 10.9585L6.71198 8.26113C6.76173 8.21039 6.8212 8.17009 6.88687 8.14262C6.95255 8.11515 7.0231 8.10107 7.09434 8.1012Z" fill="#6495ED"/>
<path d="M11.9134 8.10056C11.8073 8.10071 11.7037 8.13234 11.6158 8.19141C11.528 8.25048 11.4598 8.3343 11.4201 8.43213C11.3804 8.52997 11.3709 8.63737 11.3929 8.74058C11.415 8.84379 11.4674 8.9381 11.5436 9.01147L13.8854 11.3331L11.5436 13.6547C11.492 13.7034 11.4506 13.7618 11.422 13.8266C11.3934 13.8914 11.3781 13.9612 11.3771 14.032C11.376 14.1028 11.3892 14.173 11.4159 14.2386C11.4426 14.3042 11.4823 14.3638 11.5325 14.414C11.5827 14.4641 11.6425 14.5037 11.7084 14.5304C11.7743 14.5572 11.8448 14.5705 11.916 14.5697C11.9871 14.5689 12.0574 14.5539 12.1226 14.5257C12.1878 14.4974 12.2467 14.4564 12.2957 14.4052L15.0158 11.7083C15.0654 11.6591 15.1048 11.6006 15.1316 11.5362C15.1585 11.4718 15.1723 11.4028 15.1723 11.3331C15.1723 11.2634 15.1585 11.1944 15.1316 11.13C15.1048 11.0656 15.0654 11.0071 15.0158 10.9579L12.2957 8.26046C12.246 8.20973 12.1865 8.16945 12.1208 8.14198C12.0552 8.11451 11.9846 8.10043 11.9134 8.10056Z" fill="#6495ED"/>
<path d="M10.8462 6.07997C10.7326 6.08409 10.6232 6.1243 10.5342 6.19469C10.4451 6.26508 10.3811 6.36198 10.3513 6.4712L7.63124 15.9107C7.61124 15.9778 7.60479 16.0482 7.61228 16.1178C7.61976 16.1874 7.64104 16.2548 7.67486 16.3162C7.70869 16.3776 7.7544 16.4317 7.80936 16.4754C7.86432 16.5191 7.92743 16.5515 7.99506 16.5708C8.0627 16.5901 8.1335 16.5959 8.2034 16.5879C8.27329 16.5798 8.34089 16.5581 8.40228 16.5239C8.46368 16.4897 8.51766 16.4437 8.56111 16.3887C8.60456 16.3336 8.63662 16.2706 8.65544 16.2031L11.3755 6.76302C11.4001 6.68228 11.4049 6.59688 11.3896 6.51392C11.3743 6.43096 11.3393 6.35284 11.2875 6.28604C11.2357 6.21924 11.1687 6.16569 11.0919 6.12985C11.0152 6.09401 10.9309 6.07691 10.8462 6.07997Z" fill="#6495ED"/>
</svg>
