<svg version="1.1" xmlns="http://www.w3.org/2000/svg" xmlns:xlink="http://www.w3.org/1999/xlink" width="20.9258" height="21.6885">
 <g>
  <rect height="21.6885" opacity="0" width="20.9258" x="0" y="0"/>
  <path d="M5.79004 15.877C9.07715 19.1748 13.0356 21.6885 16.2637 21.6885C17.7085 21.6885 18.9814 21.189 19.9966 20.061C20.5928 19.4004 20.9258 18.6592 20.9258 17.9072C20.9258 17.2788 20.6787 16.6719 20.0825 16.2368L16.7632 13.8789C16.2153 13.4922 15.7695 13.3203 15.3667 13.3203C14.8457 13.3203 14.3892 13.6157 13.8735 14.1206L13.0786 14.9155C12.9604 15.0337 12.7993 15.0874 12.6597 15.0874C12.4878 15.0874 12.3105 15.0229 12.1978 14.9531C11.5049 14.5664 10.3125 13.5405 9.2168 12.4502C8.12646 11.3599 7.10059 10.1675 6.71924 9.47461C6.64941 9.35645 6.58496 9.18457 6.58496 9.01807C6.58496 8.87305 6.6333 8.71729 6.75146 8.59912L7.55176 7.79346C8.05127 7.27783 8.35205 6.82666 8.35205 6.30029C8.35205 5.89746 8.1748 5.45166 7.78271 4.90381L5.44092 1.60596C5.01123 1.00439 4.38818 0.751953 3.73828 0.751953C2.98633 0.751953 2.25049 1.06348 1.60059 1.68115C0.48877 2.7124 0 3.99609 0 5.4248C0 8.65283 2.49219 12.5952 5.79004 15.877Z" fill="#6495ED" fill-opacity="0.85"/>
 </g>
</svg>
