<svg version="1.1" xmlns="http://www.w3.org/2000/svg" xmlns:xlink="http://www.w3.org/1999/xlink" width="26.8359" height="16.8311">
 <g>
  <rect height="16.8311" opacity="0" width="26.8359" x="0" y="0"/>
  <path d="M13.4253 16.8311C14.1577 16.8237 14.7583 16.5527 15.3442 15.9668L26.1694 4.87793C26.6162 4.43115 26.8359 3.90381 26.8359 3.2666C26.8359 1.96289 25.7886 0.908203 24.5068 0.908203C23.8696 0.908203 23.269 1.16455 22.793 1.65527L12.8394 11.9312L14.0332 11.9312L4.05029 1.65527C3.57422 1.1792 2.98096 0.908203 2.3291 0.908203C1.04004 0.908203 0 1.96289 0 3.2666C0 3.89648 0.227051 4.42383 0.65918 4.88525L11.499 15.9668C12.0996 16.5674 12.6929 16.8311 13.4253 16.8311Z" fill="#6495ED" fill-opacity="0.85"/>
 </g>
</svg>
