<svg version="1.1" xmlns="http://www.w3.org/2000/svg" xmlns:xlink="http://www.w3.org/1999/xlink" width="40.3947" height="40.4389">
 <g>
  <rect height="40.4389" opacity="0" width="40.3947" x="0" y="0"/>
  <path d="M1.04828 39.3845C2.47651 40.7883 4.93012 40.7517 6.26069 39.4211L20.2011 25.4807L34.1171 39.4089C35.4965 40.7883 37.9013 40.7883 39.3173 39.3723C40.7333 37.9441 40.7455 35.5637 39.3662 34.1721L25.4501 20.2317L39.3662 6.31566C40.7455 4.93626 40.7455 2.54369 39.3173 1.12767C37.8891-0.300553 35.4965-0.31276 34.1171 1.07884L20.2011 14.9949L6.26069 1.06663C4.93012-0.263932 2.4643-0.324967 1.04828 1.11546C-0.355525 2.54369-0.318904 4.97288 1.01166 6.30345L14.9521 20.2317L1.01166 34.1965C-0.318904 35.5149-0.367732 37.9685 1.04828 39.3845Z" fill="#ff0000" fill-opacity="0.85"/>
 </g>
</svg>
